<svg xmlns="http://www.w3.org/2000/svg" width="44" height="45" viewBox="0 0 44 45">
  <g id="Group_311" data-name="Group 311" transform="translate(0.225 0.318)">
    <g id="Group_151" data-name="Group 151" transform="translate(-0.225 -0.318)">
      <ellipse id="Ellipse_1" data-name="Ellipse 1" cx="22" cy="22.5" rx="22" ry="22.5" transform="translate(0 0)" fill="#c0ff61"/>
      <g id="Group_150" data-name="Group 150" transform="translate(11.013 10.25)">
        <path id="Path_303" data-name="Path 303" d="M9.318,7.73A17.531,17.531,0,0,0,8.387.359.57.57,0,1,0,7.308.727a16.253,16.253,0,0,1,.85,7.137.573.573,0,0,0,.148.453c.4.434.788.829,1.13,1.178.672.686,1.591,1.626,1.545,1.9,0,.012-.12.275-1.49.568a.566.566,0,0,0-.434.681l.24,1.053c-1.728.557-2.442,1.1-2.432,1.82.009.813,1,1.275,2.086,1.6-.009.277,0,.564.018.843.032.621.067,1.326-.2,1.529-.122.092-.55.261-1.876-.176-1.956-.838-3-1.026-3.846-.686-.882.353-1.335,1.2-2.021,2.481C.732,21.656.4,22.277-.028,22.982a.57.57,0,0,0,.972.594c.446-.732.785-1.367,1.086-1.929.568-1.06.942-1.762,1.441-1.961s1.4,0,3,.686a.272.272,0,0,0,.046.016c1.4.467,2.34.469,2.945.009.746-.568.7-1.591.649-2.492a4.973,4.973,0,0,1,.016-1.095.568.568,0,0,0-.411-.658A4.874,4.874,0,0,1,8.059,15.5a5.955,5.955,0,0,1,2.072-.868.569.569,0,0,0,.395-.672l-.233-1.019c.852-.226,1.582-.564,1.781-1.22.268-.887-.564-1.735-1.82-3.021C9.965,8.4,9.648,8.079,9.318,7.73Z" transform="translate(0.111 0.027)" fill="#000415"/>
        <path id="Path_304" data-name="Path 304" d="M594.574,525.042a.569.569,0,0,0-.349.725c.825,2.358.836,4.357.03,5.936a.566.566,0,0,0,.25.765.576.576,0,0,0,.259.062.569.569,0,0,0,.508-.312c.952-1.869.961-4.165.03-6.83A.574.574,0,0,0,594.574,525.042Z" transform="translate(-580.465 -512.882)" fill="#000415"/>
        <path id="Path_305" data-name="Path 305" d="M871.115,374.17a.569.569,0,1,0-1.026.494c2.217,4.592,2.222,8.911.016,12.84a.568.568,0,0,0,.217.774.58.58,0,0,0,.277.074.567.567,0,0,0,.5-.291C873.5,383.79,873.5,379.115,871.115,374.17Z" transform="translate(-849.933 -365.212)" fill="#000415"/>
        <path id="Path_306" data-name="Path 306" d="M732.524,449.469a.567.567,0,0,0-.3.746c1.485,3.467,1.492,6.539.018,9.389a.57.57,0,0,0,.245.767.559.559,0,0,0,.261.065.573.573,0,0,0,.506-.307c1.64-3.172,1.647-6.56.018-10.36A.574.574,0,0,0,732.524,449.469Z" transform="translate(-715.264 -439.042)" fill="#000415"/>
      </g>
    </g>
  </g>
</svg>
